# xmcd
#
# Track frame offsets:
#	150
#	11221
#	19580
#	29976
#	37941
#	46563
#	54545
#	63116
#	72515
#	81801
#	92219
#	101026
#
# Disc length: 1458 seconds
#
# Revision: 1
# Processed by: cddbd v1.5PL3 Copyright (c) Steve Scherf et al.
# Submitted via: audiograbber 1.83.01
#
DISCID=9905b00c
DTITLE=Roger Miller - Golden Hits
DYEAR=1965
DGENRE=Country
TTITLE0=King of the Road
TTITLE1=Dang Me
TTITLE2=Engine Engine #9
TTITLE3=In the Summertime (You Don't Want My Love)
TTITLE4=You Can't Roller Skate In a Buffalo Herd
TTITLE5=(And You Had a) Do-Wacka-Do
TTITLE6=England Swings
TTITLE7=Chug-A-Lug
TTITLE8=One Dying and a Burying
TTITLE9=Kansas City Star
TTITLE10=Atta Boy Girl
TTITLE11=It Happened Just That Way
EXTD=
EXTT0=
EXTT1=
EXTT2=
EXTT3=
EXTT4=
EXTT5=
EXTT6=
EXTT7=
EXTT8=
EXTT9=
EXTT10=
EXTT11=
PLAYORDER=
